<mxfile host="app.diagrams.net" modified="2023-07-21T16:32:08.509Z" agent="Mozilla/5.0 (Windows NT 10.0; Win64; x64) AppleWebKit/537.36 (KHTML, like Gecko) Chrome/114.0.0.0 Safari/537.36 Edg/114.0.1823.82" etag="Teit9tBffzTRF7vTeXSI" version="21.6.3" type="github">
  <diagram name="第 1 页" id="0fhzMjEV7jErXcl1rRbr">
    <mxGraphModel dx="1166" dy="775" grid="1" gridSize="10" guides="1" tooltips="1" connect="1" arrows="1" fold="1" page="1" pageScale="1" pageWidth="827" pageHeight="1169" math="0" shadow="0">
      <root>
        <mxCell id="0" />
        <mxCell id="1" parent="0" />
        <mxCell id="I5jLkcfeIpw5peVrgdjI-3" value="" style="edgeStyle=orthogonalEdgeStyle;rounded=0;orthogonalLoop=1;jettySize=auto;html=1;" edge="1" parent="1" source="I5jLkcfeIpw5peVrgdjI-1" target="I5jLkcfeIpw5peVrgdjI-2">
          <mxGeometry relative="1" as="geometry" />
        </mxCell>
        <mxCell id="I5jLkcfeIpw5peVrgdjI-1" value="" style="ellipse;whiteSpace=wrap;html=1;rounded=0;shadow=0;comic=0;labelBackgroundColor=none;strokeWidth=1;fillColor=#000000;fontFamily=Verdana;fontSize=12;align=center;" vertex="1" parent="1">
          <mxGeometry x="295" y="170" width="30" height="30" as="geometry" />
        </mxCell>
        <mxCell id="I5jLkcfeIpw5peVrgdjI-5" style="edgeStyle=orthogonalEdgeStyle;rounded=0;orthogonalLoop=1;jettySize=auto;html=1;entryX=0.5;entryY=0;entryDx=0;entryDy=0;" edge="1" parent="1" source="I5jLkcfeIpw5peVrgdjI-2" target="I5jLkcfeIpw5peVrgdjI-4">
          <mxGeometry relative="1" as="geometry" />
        </mxCell>
        <mxCell id="I5jLkcfeIpw5peVrgdjI-2" value="还款行为检测" style="rounded=1;whiteSpace=wrap;html=1;" vertex="1" parent="1">
          <mxGeometry x="260" y="230" width="100" height="30" as="geometry" />
        </mxCell>
        <mxCell id="I5jLkcfeIpw5peVrgdjI-11" style="rounded=0;orthogonalLoop=1;jettySize=auto;html=1;entryX=0.5;entryY=0;entryDx=0;entryDy=0;" edge="1" parent="1" source="I5jLkcfeIpw5peVrgdjI-4" target="I5jLkcfeIpw5peVrgdjI-6">
          <mxGeometry relative="1" as="geometry" />
        </mxCell>
        <mxCell id="I5jLkcfeIpw5peVrgdjI-12" value="" style="edgeStyle=orthogonalEdgeStyle;rounded=0;orthogonalLoop=1;jettySize=auto;html=1;" edge="1" parent="1" source="I5jLkcfeIpw5peVrgdjI-4" target="I5jLkcfeIpw5peVrgdjI-8">
          <mxGeometry relative="1" as="geometry" />
        </mxCell>
        <mxCell id="I5jLkcfeIpw5peVrgdjI-13" style="rounded=0;orthogonalLoop=1;jettySize=auto;html=1;entryX=0.5;entryY=0;entryDx=0;entryDy=0;" edge="1" parent="1" source="I5jLkcfeIpw5peVrgdjI-4" target="I5jLkcfeIpw5peVrgdjI-9">
          <mxGeometry relative="1" as="geometry" />
        </mxCell>
        <mxCell id="I5jLkcfeIpw5peVrgdjI-4" value="" style="whiteSpace=wrap;html=1;rounded=0;shadow=0;comic=0;labelBackgroundColor=none;strokeWidth=1;fillColor=#000000;fontFamily=Verdana;fontSize=12;align=center;rotation=0;" vertex="1" parent="1">
          <mxGeometry x="236.5" y="290" width="147" height="10" as="geometry" />
        </mxCell>
        <mxCell id="I5jLkcfeIpw5peVrgdjI-18" value="" style="rounded=0;orthogonalLoop=1;jettySize=auto;html=1;" edge="1" parent="1" source="I5jLkcfeIpw5peVrgdjI-6" target="I5jLkcfeIpw5peVrgdjI-16">
          <mxGeometry relative="1" as="geometry" />
        </mxCell>
        <mxCell id="I5jLkcfeIpw5peVrgdjI-6" value="提前还款" style="rounded=1;whiteSpace=wrap;html=1;" vertex="1" parent="1">
          <mxGeometry x="150" y="330" width="100" height="30" as="geometry" />
        </mxCell>
        <mxCell id="I5jLkcfeIpw5peVrgdjI-19" value="" style="rounded=0;orthogonalLoop=1;jettySize=auto;html=1;" edge="1" parent="1" source="I5jLkcfeIpw5peVrgdjI-8" target="I5jLkcfeIpw5peVrgdjI-16">
          <mxGeometry relative="1" as="geometry" />
        </mxCell>
        <mxCell id="I5jLkcfeIpw5peVrgdjI-8" value="正常还款" style="rounded=1;whiteSpace=wrap;html=1;" vertex="1" parent="1">
          <mxGeometry x="260" y="330" width="100" height="30" as="geometry" />
        </mxCell>
        <mxCell id="I5jLkcfeIpw5peVrgdjI-15" value="" style="edgeStyle=orthogonalEdgeStyle;rounded=0;orthogonalLoop=1;jettySize=auto;html=1;" edge="1" parent="1" source="I5jLkcfeIpw5peVrgdjI-9" target="I5jLkcfeIpw5peVrgdjI-14">
          <mxGeometry relative="1" as="geometry" />
        </mxCell>
        <mxCell id="I5jLkcfeIpw5peVrgdjI-9" value="逾期还款" style="rounded=1;whiteSpace=wrap;html=1;" vertex="1" parent="1">
          <mxGeometry x="370" y="330" width="100" height="30" as="geometry" />
        </mxCell>
        <mxCell id="I5jLkcfeIpw5peVrgdjI-17" value="" style="edgeStyle=orthogonalEdgeStyle;rounded=0;orthogonalLoop=1;jettySize=auto;html=1;" edge="1" parent="1" source="I5jLkcfeIpw5peVrgdjI-14" target="I5jLkcfeIpw5peVrgdjI-16">
          <mxGeometry relative="1" as="geometry" />
        </mxCell>
        <mxCell id="I5jLkcfeIpw5peVrgdjI-23" style="rounded=0;orthogonalLoop=1;jettySize=auto;html=1;entryX=0.75;entryY=0;entryDx=0;entryDy=0;" edge="1" parent="1" source="I5jLkcfeIpw5peVrgdjI-14" target="I5jLkcfeIpw5peVrgdjI-22">
          <mxGeometry relative="1" as="geometry" />
        </mxCell>
        <mxCell id="I5jLkcfeIpw5peVrgdjI-14" value="罚息试算" style="rounded=1;whiteSpace=wrap;html=1;" vertex="1" parent="1">
          <mxGeometry x="370" y="390" width="100" height="30" as="geometry" />
        </mxCell>
        <mxCell id="I5jLkcfeIpw5peVrgdjI-21" value="" style="edgeStyle=orthogonalEdgeStyle;rounded=0;orthogonalLoop=1;jettySize=auto;html=1;" edge="1" parent="1" source="I5jLkcfeIpw5peVrgdjI-16" target="I5jLkcfeIpw5peVrgdjI-20">
          <mxGeometry relative="1" as="geometry" />
        </mxCell>
        <mxCell id="I5jLkcfeIpw5peVrgdjI-16" value="" style="whiteSpace=wrap;html=1;rounded=0;shadow=0;comic=0;labelBackgroundColor=none;strokeWidth=1;fillColor=#000000;fontFamily=Verdana;fontSize=12;align=center;rotation=0;" vertex="1" parent="1">
          <mxGeometry x="190" y="400" width="147" height="10" as="geometry" />
        </mxCell>
        <mxCell id="I5jLkcfeIpw5peVrgdjI-24" style="rounded=0;orthogonalLoop=1;jettySize=auto;html=1;entryX=0.25;entryY=0;entryDx=0;entryDy=0;" edge="1" parent="1" source="I5jLkcfeIpw5peVrgdjI-20" target="I5jLkcfeIpw5peVrgdjI-22">
          <mxGeometry relative="1" as="geometry" />
        </mxCell>
        <mxCell id="I5jLkcfeIpw5peVrgdjI-20" value="利息本金试算" style="rounded=1;whiteSpace=wrap;html=1;" vertex="1" parent="1">
          <mxGeometry x="213.5" y="440" width="100" height="30" as="geometry" />
        </mxCell>
        <mxCell id="I5jLkcfeIpw5peVrgdjI-26" value="" style="edgeStyle=orthogonalEdgeStyle;rounded=0;orthogonalLoop=1;jettySize=auto;html=1;" edge="1" parent="1" source="I5jLkcfeIpw5peVrgdjI-22" target="I5jLkcfeIpw5peVrgdjI-25">
          <mxGeometry relative="1" as="geometry" />
        </mxCell>
        <mxCell id="I5jLkcfeIpw5peVrgdjI-22" value="" style="whiteSpace=wrap;html=1;rounded=0;shadow=0;comic=0;labelBackgroundColor=none;strokeWidth=1;fillColor=#000000;fontFamily=Verdana;fontSize=12;align=center;rotation=0;" vertex="1" parent="1">
          <mxGeometry x="260" y="500" width="147" height="10" as="geometry" />
        </mxCell>
        <mxCell id="I5jLkcfeIpw5peVrgdjI-28" value="" style="edgeStyle=orthogonalEdgeStyle;rounded=0;orthogonalLoop=1;jettySize=auto;html=1;" edge="1" parent="1" source="I5jLkcfeIpw5peVrgdjI-25" target="I5jLkcfeIpw5peVrgdjI-27">
          <mxGeometry relative="1" as="geometry" />
        </mxCell>
        <mxCell id="I5jLkcfeIpw5peVrgdjI-25" value="还款金额生成" style="rounded=1;whiteSpace=wrap;html=1;" vertex="1" parent="1">
          <mxGeometry x="283.5" y="540" width="100" height="30" as="geometry" />
        </mxCell>
        <mxCell id="I5jLkcfeIpw5peVrgdjI-27" value="" style="shape=mxgraph.bpmn.shape;html=1;verticalLabelPosition=bottom;labelBackgroundColor=#ffffff;verticalAlign=top;perimeter=ellipsePerimeter;outline=end;symbol=terminate;rounded=0;shadow=0;comic=0;strokeWidth=1;fontFamily=Verdana;fontSize=12;align=center;" vertex="1" parent="1">
          <mxGeometry x="318.5" y="600" width="30" height="30" as="geometry" />
        </mxCell>
      </root>
    </mxGraphModel>
  </diagram>
</mxfile>
